<?xml version="1.0" encoding="utf-8"?>
<!-- Generator: Adobe Illustrator 15.0.0, SVG Export Plug-In . SVG Version: 6.00 Build 0)  -->
<!DOCTYPE svg PUBLIC "-//W3C//DTD SVG 1.1//EN" "http://www.w3.org/Graphics/SVG/1.1/DTD/svg11.dtd">
<svg version="1.1" id="Layer_1" xmlns="http://www.w3.org/2000/svg" xmlns:xlink="http://www.w3.org/1999/xlink" x="0px" y="0px"
	 width="167px" height="130px" viewBox="0 0 167 130" enable-background="new 0 0 167 130" xml:space="preserve">
<g>
	<g>
		<polygon fill="#CCCCCC" points="18.834,87.161 36.463,61.918 57.076,32.403 96.334,71.661 51.547,90.172 		"/>
		<polygon fill="#FFFFFF" points="43.084,59.161 57.076,37.653 68.709,49.286 63.168,58.828 55.501,52.661 46.668,64.661 		"/>
		<g>
			<polygon fill="#CCCCCC" points="61.584,73.669 99.826,18.911 139.084,58.169 119.306,67.291 			"/>
			<polygon fill="#FFFFFF" points="82.136,51.329 99.826,24.161 119.306,43.513 108.911,40.02 100.334,47.092 93.86,42.681 			"/>
		</g>
		<g>
			<polygon fill="#CCCCCC" points="53.25,104.42 91.492,49.662 130.75,88.92 98.5,107.42 			"/>
			<polygon fill="#FFFFFF" points="75.333,79.67 91.492,54.912 110.5,73.753 98.792,67.813 92.75,75.17 84.208,72.083 			"/>
		</g>
	</g>
</g>
</svg>
