<?xml version="1.0" encoding="utf-8"?>
<!-- Generator: Adobe Illustrator 15.0.0, SVG Export Plug-In . SVG Version: 6.00 Build 0)  -->
<!DOCTYPE svg PUBLIC "-//W3C//DTD SVG 1.1//EN" "http://www.w3.org/Graphics/SVG/1.1/DTD/svg11.dtd">
<svg version="1.1" id="Layer_1" xmlns="http://www.w3.org/2000/svg" xmlns:xlink="http://www.w3.org/1999/xlink" x="0px" y="0px"
	 width="334px" height="130px" viewBox="0 0 334 130" enable-background="new 0 0 334 130" xml:space="preserve">
<g>
	<g>
		<polygon fill="#B3B3B3" points="18.834,87.161 36.463,61.918 57.076,32.403 96.334,71.661 51.547,90.172 		"/>
		<polygon fill="#FFFFFF" points="43.084,59.161 57.076,37.653 68.709,49.286 63.168,58.828 55.501,52.661 46.668,64.661 		"/>
		<g>
			<polygon fill="#B3B3B3" points="61.584,73.669 99.826,18.911 139.084,58.169 119.306,67.291 			"/>
			<polygon fill="#FFFFFF" points="82.136,51.329 99.826,24.161 119.306,43.513 108.911,40.02 100.334,47.092 93.86,42.681 			"/>
		</g>
		<g>
			<polygon fill="#B3B3B3" points="53.25,104.42 91.492,49.662 130.75,88.92 98.5,107.42 			"/>
			<polygon fill="#FFFFFF" points="75.333,79.67 91.492,54.912 110.5,73.753 98.792,67.813 92.75,75.17 84.208,72.083 			"/>
		</g>
	</g>
	<g>
		<path fill="#808080" d="M181.994,38.788c-0.178-0.788-0.507-1.523-0.988-2.206c-0.482-0.683-1.085-1.278-1.809-1.784
			s-1.555-0.904-2.495-1.193c-0.94-0.289-1.949-0.434-3.025-0.434c-1.527,0-2.914,0.25-4.159,0.748
			c-1.246,0.499-2.307,1.233-3.183,2.206s-1.551,2.186-2.024,3.64c-0.475,1.455-0.712,3.147-0.712,5.076s0.237,3.628,0.712,5.099
			c0.474,1.471,1.148,2.704,2.024,3.7c0.876,0.997,1.929,1.752,3.158,2.267s2.6,0.771,4.111,0.771c2.281,0,4.162-0.511,5.641-1.531
			s2.395-2.511,2.749-4.472h2.001c-0.193,1.253-0.587,2.374-1.182,3.363c-0.595,0.988-1.342,1.819-2.242,2.495
			c-0.9,0.675-1.937,1.189-3.11,1.543c-1.173,0.353-2.442,0.53-3.809,0.53c-1.865,0-3.54-0.326-5.026-0.977
			c-1.487-0.651-2.753-1.571-3.798-2.761s-1.848-2.632-2.41-4.327c-0.563-1.695-0.844-3.596-0.844-5.701
			c0-2.09,0.28-3.97,0.844-5.642c0.563-1.671,1.37-3.098,2.423-4.279c1.052-1.181,2.322-2.089,3.809-2.724s3.154-0.953,5.003-0.953
			c1.27,0,2.479,0.185,3.628,0.555c1.149,0.37,2.183,0.888,3.099,1.555s1.688,1.462,2.314,2.387c0.626,0.924,1.061,1.94,1.302,3.05
			H181.994z"/>
		<path fill="#808080" d="M191.661,58.123h-1.929V31.724h1.929V58.123z"/>
		<path fill="#808080" d="M200.051,58.123h-1.929V39.439h1.929V58.123z M200.075,34.738h-1.929v-3.014h1.929V34.738z"/>
		<path fill="#808080" d="M230.982,58.123h-1.929V45.924c0-1.783-0.277-3.069-0.832-3.857s-1.531-1.182-2.929-1.182
			c-1.029,0-2.029,0.318-3.002,0.952c-0.973,0.635-1.917,1.532-2.833,2.689v13.597h-1.929V45.924c0-0.883-0.06-1.646-0.181-2.29
			c-0.12-0.643-0.325-1.165-0.614-1.567c-0.29-0.402-0.672-0.699-1.146-0.892c-0.475-0.193-1.057-0.29-1.748-0.29
			c-1.013,0-1.977,0.318-2.893,0.952c-0.916,0.635-1.841,1.532-2.772,2.689v13.597h-1.929V39.439h1.929v2.772
			c0.643-0.723,1.249-1.298,1.819-1.724c0.57-0.425,1.109-0.751,1.616-0.976c0.506-0.225,0.988-0.374,1.446-0.446
			s0.896-0.108,1.313-0.108c1.206,0,2.234,0.281,3.086,0.844c0.852,0.563,1.471,1.422,1.856,2.58
			c0.482-0.675,0.992-1.233,1.531-1.675c0.538-0.442,1.085-0.792,1.64-1.049c0.554-0.257,1.112-0.438,1.675-0.542
			c0.563-0.104,1.109-0.157,1.64-0.157c3.455,0,5.184,2.266,5.184,6.799V58.123z"/>
		<path fill="#808080" d="M239.107,42.428c0.498-0.675,1.021-1.233,1.566-1.675c0.547-0.442,1.093-0.796,1.64-1.061
			s1.077-0.454,1.592-0.566c0.514-0.112,1.004-0.169,1.47-0.169c1.157,0,2.187,0.229,3.086,0.687c0.9,0.458,1.655,1.109,2.267,1.953
			c0.61,0.844,1.076,1.86,1.398,3.05c0.321,1.189,0.482,2.507,0.482,3.954c0,1.526-0.193,2.904-0.579,4.134
			s-0.912,2.278-1.579,3.146s-1.455,1.539-2.362,2.013c-0.908,0.475-1.885,0.712-2.93,0.712c-0.916,0-1.912-0.181-2.989-0.543
			c-1.077-0.361-2.098-0.992-3.062-1.893v1.953h-1.929V31.724h1.929V42.428z M239.107,53.663c0.868,0.916,1.771,1.647,2.712,2.193
			c0.94,0.547,1.98,0.82,3.122,0.82c1.736,0,3.126-0.684,4.171-2.05c1.045-1.365,1.567-3.375,1.567-6.026
			c0-2.54-0.491-4.46-1.471-5.763c-0.98-1.302-2.347-1.953-4.099-1.953c-1.157,0-2.223,0.346-3.194,1.037
			c-0.973,0.691-1.909,1.664-2.809,2.918V53.663z"/>
		<path fill="#808080" d="M259.647,58.123h-1.929V39.439h1.929V58.123z M259.672,34.738h-1.929v-3.014h1.929V34.738z"/>
		<path fill="#808080" d="M267.749,42.211c0.627-0.739,1.241-1.326,1.844-1.76c0.604-0.434,1.189-0.763,1.761-0.988
			c0.57-0.225,1.112-0.365,1.627-0.422c0.515-0.056,0.996-0.084,1.446-0.084c3.842,0,5.763,2.266,5.763,6.799v12.367h-1.929V45.924
			c0-0.867-0.077-1.618-0.229-2.254c-0.153-0.635-0.402-1.157-0.747-1.567c-0.346-0.41-0.796-0.715-1.351-0.917
			c-0.555-0.201-1.233-0.301-2.037-0.301c-1.061,0-2.102,0.313-3.122,0.94s-2.029,1.511-3.025,2.652v13.646h-1.929V39.439h1.929
			V42.211z"/>
		<path fill="#808080" d="M300.633,57.014c0,1.495-0.161,2.769-0.482,3.821s-0.799,1.908-1.434,2.568
			c-0.636,0.658-1.435,1.141-2.399,1.446c-0.964,0.305-2.081,0.458-3.351,0.458c-1.062,0-2.018-0.117-2.869-0.35
			c-0.853-0.233-1.583-0.566-2.194-1.001c-0.61-0.434-1.089-0.973-1.435-1.615s-0.542-1.374-0.59-2.193h1.929
			c0.08,1.108,0.538,1.924,1.374,2.446c0.835,0.522,2.073,0.784,3.713,0.784c0.964,0,1.808-0.117,2.531-0.35
			c0.723-0.233,1.326-0.615,1.808-1.146c0.482-0.53,0.848-1.229,1.098-2.098c0.249-0.867,0.373-1.937,0.373-3.206v-1.182
			c-0.627,0.74-1.218,1.322-1.771,1.748c-0.555,0.426-1.09,0.747-1.604,0.965c-0.515,0.217-1.009,0.353-1.482,0.409
			c-0.475,0.057-0.937,0.085-1.387,0.085c-1.173,0-2.21-0.233-3.109-0.699c-0.9-0.466-1.656-1.121-2.267-1.965
			c-0.611-0.844-1.073-1.86-1.387-3.05s-0.47-2.516-0.47-3.979c0-1.543,0.188-2.929,0.566-4.158s0.9-2.274,1.567-3.134
			c0.667-0.859,1.454-1.519,2.362-1.977s1.885-0.687,2.93-0.687c0.449,0,0.916,0.033,1.398,0.097
			c0.481,0.064,0.979,0.181,1.494,0.35c0.515,0.168,1.037,0.397,1.567,0.687c0.53,0.289,1.061,0.659,1.591,1.109v-1.76h1.929V57.014
			z M298.704,43.586c-0.868-0.9-1.771-1.575-2.712-2.025s-1.981-0.675-3.122-0.675c-0.868,0-1.651,0.165-2.351,0.494
			c-0.699,0.33-1.298,0.828-1.796,1.496c-0.499,0.667-0.885,1.503-1.157,2.507c-0.273,1.005-0.41,2.182-0.41,3.531
			c0,2.54,0.49,4.469,1.471,5.786c0.98,1.318,2.347,1.978,4.099,1.978c1.157,0,2.218-0.317,3.182-0.952
			c0.965-0.635,1.896-1.579,2.797-2.833V43.586z"/>
		<path fill="#808080" d="M183.995,97.771h-2.122l-2.628-7.016c-0.257-0.675-0.542-1.31-0.855-1.904s-0.68-1.113-1.097-1.556
			c-0.419-0.441-0.896-0.791-1.435-1.049c-0.539-0.257-1.17-0.386-1.893-0.386h-9.233v11.91h-1.929V71.371h11.885
			c1.109,0,2.183,0.101,3.219,0.302c1.037,0.201,1.961,0.559,2.772,1.073c0.812,0.514,1.459,1.226,1.941,2.133
			c0.481,0.908,0.723,2.07,0.723,3.484c0,0.884-0.108,1.708-0.325,2.471c-0.217,0.764-0.547,1.446-0.988,2.05
			c-0.442,0.603-1.005,1.117-1.688,1.543c-0.684,0.426-1.483,0.735-2.399,0.928c0.498,0.386,0.908,0.756,1.229,1.109
			s0.599,0.731,0.832,1.133c0.232,0.402,0.441,0.844,0.627,1.326c0.185,0.482,0.397,1.036,0.639,1.663L183.995,97.771z
			 M164.732,83.932h9.161c1.302,0,2.419-0.096,3.351-0.289c0.933-0.192,1.7-0.51,2.303-0.952c0.603-0.441,1.049-1.017,1.338-1.724
			s0.434-1.575,0.434-2.604c0-1.816-0.574-3.114-1.724-3.894s-2.865-1.17-5.146-1.17h-9.716V83.932z"/>
		<path fill="#808080" d="M197.037,98.253c-1.302,0-2.482-0.222-3.544-0.663c-1.061-0.442-1.973-1.085-2.736-1.929
			s-1.354-1.877-1.771-3.098c-0.418-1.222-0.627-2.612-0.627-4.171c0-1.511,0.201-2.873,0.603-4.087
			c0.401-1.213,0.973-2.242,1.712-3.086s1.615-1.49,2.628-1.94s2.138-0.675,3.375-0.675c1.27,0,2.419,0.225,3.447,0.675
			s1.905,1.097,2.628,1.94c0.724,0.844,1.278,1.873,1.664,3.086c0.386,1.214,0.578,2.584,0.578,4.11v0.435h-14.706
			c0.097,1.27,0.329,2.371,0.699,3.303c0.369,0.933,0.852,1.708,1.446,2.326c0.595,0.619,1.281,1.081,2.062,1.387
			c0.779,0.306,1.627,0.458,2.543,0.458c0.643,0,1.286-0.076,1.929-0.229c0.643-0.152,1.226-0.382,1.748-0.687
			c0.522-0.306,0.96-0.684,1.314-1.134c0.354-0.449,0.563-0.964,0.627-1.543h1.904c-0.177,0.885-0.49,1.668-0.94,2.351
			c-0.45,0.684-1.005,1.263-1.663,1.736c-0.659,0.474-1.407,0.832-2.242,1.072C198.878,98.132,197.985,98.253,197.037,98.253z
			 M203.041,86.922c-0.322-2.138-1.049-3.737-2.183-4.798c-1.133-1.061-2.527-1.591-4.183-1.591c-0.819,0-1.583,0.129-2.29,0.386
			c-0.708,0.257-1.338,0.65-1.893,1.181s-1.021,1.198-1.398,2.001c-0.378,0.804-0.647,1.744-0.808,2.821H203.041z"/>
		<path fill="#808080" d="M211.864,81.858c0.61-0.738,1.201-1.325,1.771-1.76c0.57-0.434,1.121-0.763,1.651-0.988
			c0.531-0.225,1.041-0.369,1.531-0.434s0.968-0.097,1.435-0.097c1.157,0,2.186,0.233,3.086,0.699s1.655,1.121,2.267,1.965
			c0.61,0.844,1.076,1.86,1.397,3.05c0.322,1.189,0.482,2.507,0.482,3.954c0,1.526-0.188,2.904-0.566,4.134s-0.9,2.278-1.567,3.146
			s-1.454,1.539-2.362,2.013c-0.908,0.475-1.893,0.712-2.953,0.712c-0.45,0-0.916-0.021-1.398-0.061s-0.98-0.141-1.495-0.302
			c-0.515-0.16-1.045-0.397-1.591-0.711c-0.547-0.313-1.109-0.735-1.688-1.266v8.728h-1.929V79.086h1.929V81.858z M211.864,93.575
			c1.735,1.833,3.729,2.749,5.979,2.749c0.868,0,1.651-0.173,2.351-0.519s1.298-0.855,1.797-1.531
			c0.498-0.675,0.884-1.515,1.157-2.519c0.272-1.005,0.409-2.174,0.409-3.508c0-2.54-0.486-4.461-1.458-5.763
			c-0.973-1.302-2.343-1.952-4.111-1.952c-2.314,0-4.355,1.245-6.123,3.736V93.575z"/>
		<path fill="#808080" d="M237.661,78.604c1.27,0,2.419,0.221,3.447,0.662c1.028,0.442,1.905,1.085,2.628,1.929
			c0.724,0.845,1.278,1.873,1.664,3.086c0.386,1.214,0.578,2.584,0.578,4.111c0,1.559-0.197,2.949-0.591,4.171
			c-0.394,1.221-0.952,2.254-1.675,3.098c-0.724,0.844-1.6,1.486-2.628,1.929c-1.029,0.441-2.17,0.663-3.424,0.663
			s-2.391-0.217-3.411-0.651c-1.021-0.434-1.893-1.072-2.616-1.916c-0.723-0.845-1.286-1.877-1.688-3.099
			c-0.401-1.221-0.603-2.619-0.603-4.194c0-1.543,0.196-2.921,0.591-4.135c0.394-1.214,0.952-2.238,1.676-3.074
			c0.723-0.835,1.599-1.475,2.628-1.917C235.267,78.825,236.407,78.604,237.661,78.604z M237.661,96.324
			c0.948,0,1.813-0.165,2.592-0.494s1.45-0.828,2.013-1.495s1.001-1.495,1.314-2.483s0.47-2.142,0.47-3.459
			c0-1.302-0.156-2.447-0.47-3.436s-0.752-1.809-1.314-2.459c-0.563-0.651-1.233-1.142-2.013-1.471s-1.644-0.494-2.592-0.494
			c-0.964,0-1.836,0.165-2.615,0.494c-0.78,0.329-1.451,0.819-2.014,1.471c-0.563,0.65-0.997,1.471-1.302,2.459
			c-0.306,0.988-0.458,2.134-0.458,3.436c0,1.317,0.152,2.471,0.458,3.459c0.305,0.988,0.739,1.816,1.302,2.483
			s1.233,1.166,2.014,1.495C235.825,96.159,236.697,96.324,237.661,96.324z"/>
		<path fill="#808080" d="M259.6,80.581c-0.177-0.032-0.369-0.048-0.578-0.048c-0.193,0-0.426,0-0.699,0
			c-0.547,0-1.077,0.112-1.591,0.337c-0.515,0.226-1.005,0.519-1.471,0.88c-0.467,0.362-0.9,0.771-1.302,1.229
			c-0.402,0.458-0.748,0.929-1.037,1.411v13.38h-1.929V79.086h1.929v2.58c0.546-0.643,1.089-1.165,1.627-1.567
			c0.539-0.401,1.062-0.715,1.567-0.94c0.506-0.225,0.992-0.373,1.459-0.445c0.466-0.072,0.892-0.108,1.277-0.108
			c0.129,0,0.249,0.004,0.361,0.012s0.241,0.021,0.386,0.036V80.581z"/>
		<path fill="#808080" d="M269.364,97.939c-0.273,0.032-0.547,0.056-0.82,0.072c-0.273,0.016-0.546,0.024-0.819,0.024
			c-0.836,0-1.507-0.117-2.013-0.35c-0.507-0.233-0.893-0.583-1.157-1.049c-0.266-0.466-0.438-1.049-0.519-1.748
			c-0.081-0.699-0.12-1.515-0.12-2.447V81.015h-2.388v-1.929h2.388v-4.894h1.929v4.894h3.062v1.929h-3.062v11.597
			c0,0.771,0.056,1.386,0.168,1.844c0.112,0.459,0.281,0.813,0.507,1.062c0.225,0.249,0.502,0.409,0.831,0.481
			c0.33,0.073,0.703,0.109,1.121,0.109c0.177,0,0.33,0,0.458,0c0.129,0,0.273-0.009,0.435-0.024V97.939z"/>
	</g>
</g>
</svg>
